<?xml version="1.0" encoding="utf-8"?>
<!-- Generator: Adobe Illustrator 23.0.2, SVG Export Plug-In . SVG Version: 6.00 Build 0)  -->
<svg version="1.1" id="图层_1" xmlns="http://www.w3.org/2000/svg" xmlns:xlink="http://www.w3.org/1999/xlink" x="0px" y="0px"
	 viewBox="0 0 50 50" style="enable-background:new 0 0 50 50;" xml:space="preserve">
<path d="M19.5,25L36.8,7.7c1.2-1.2,1.2-3.1,0-4.2c-1.2-1.2-3.1-1.2-4.2,0L13.2,22.9c0,0,0,0,0,0s0,0,0,0c-0.6,0.6-0.9,1.3-0.9,2.1
	c0,0,0,0,0,0c0,0,0,0,0,0c0,0.8,0.3,1.5,0.9,2.1c0,0,0,0,0,0l19.4,19.4c0.6,0.6,1.4,0.9,2.1,0.9s1.5-0.3,2.1-0.9
	c1.2-1.2,1.2-3.1,0-4.2L19.5,25z"/>
</svg>
