<svg 
 xmlns="http://www.w3.org/2000/svg"
 xmlns:xlink="http://www.w3.org/1999/xlink"
 width="70px" height="61px">
<defs>
<linearGradient id="PSgrad_0" x1="0%" x2="76.604%" y1="0%" y2="64.279%">
  <stop offset="0%" stop-color="rgb(100,100,100)" stop-opacity="0.37" />
  <stop offset="100%" stop-color="rgb(255,255,255)" stop-opacity="0.37" />
</linearGradient>

</defs>
<path fill-rule="evenodd"  fill="rgb(23, 153, 255)"
 d="M-0.001,-0.000 L39.500,-0.000 C56.343,-0.000 69.999,13.655 69.999,30.500 C69.999,47.344 56.343,60.999 39.500,60.999 L-0.001,60.999 L-0.001,-0.000 Z"/>
<path fill="url(#PSgrad_0)"
 d="M-0.001,-0.000 L39.500,-0.000 C56.343,-0.000 69.999,13.655 69.999,30.500 C69.999,47.344 56.343,60.999 39.500,60.999 L-0.001,60.999 L-0.001,-0.000 Z"/>
<path fill-rule="evenodd"  fill="rgb(255, 255, 255)"
 d="M46.786,51.882 C45.104,51.882 43.819,50.570 43.819,48.855 C43.819,42.297 38.576,37.050 32.243,37.050 C25.813,37.050 20.669,42.397 20.669,48.855 C20.669,50.570 19.383,51.882 17.700,51.882 C16.019,51.882 14.733,50.570 14.733,48.855 C14.733,38.967 22.648,30.996 32.243,30.996 C41.840,30.996 49.754,38.967 49.754,48.855 C49.754,50.570 48.469,51.882 46.786,51.882 ZM32.243,28.675 C26.889,28.675 22.549,24.249 22.549,18.788 C22.549,13.327 26.889,8.900 32.243,8.900 C37.599,8.900 41.939,13.327 41.939,18.788 C41.939,24.249 37.599,28.675 32.243,28.675 Z"/>
</svg>