<?xml version="1.0" encoding="utf-8"?>
<!-- Generator: Adobe Illustrator 23.0.2, SVG Export Plug-In . SVG Version: 6.00 Build 0)  -->
<svg version="1.1" id="图层_1" xmlns="http://www.w3.org/2000/svg" xmlns:xlink="http://www.w3.org/1999/xlink" x="0px" y="0px"
	 viewBox="0 0 50 50" style="enable-background:new 0 0 50 50;" xml:space="preserve">
<style type="text/css">
	.st0{fill:#DCDCDC;}
</style>
<g>
	<path class="st0" d="M20.3,24.4c-0.6-0.7-1.7-0.7-2.4,0c-0.7,0.6-0.7,1.7,0,2.4l4,4c0.3,0.3,0.8,0.5,1.2,0.5s0.8-0.2,1.2-0.5
		l14.6-14.6c0.6-0.6,0.6-1.5,0.2-2.1l0,0c-0.6-0.8-1.8-0.9-2.5-0.2L24,26.4c-0.5,0.5-1.3,0.5-1.8,0L20.3,24.4z"/>
	<path class="st0" d="M40.2,26.5c-0.8,0-1.5-0.7-1.5-1.5c0-1.6-0.3-3.2-0.8-4.7c-0.3-0.8,0.1-1.6,0.9-1.9c0.8-0.3,1.6,0.1,1.9,0.9
		c0.7,1.8,1,3.8,1,5.7C41.7,25.8,41,26.5,40.2,26.5z"/>
	<path class="st0" d="M25,41.7c-9.2,0-16.7-7.5-16.7-16.7c0-9.2,7.5-16.7,16.7-16.7c3.3,0,6.5,1,9.2,2.8c0.7,0.5,0.9,1.4,0.4,2.1
		c-0.5,0.7-1.4,0.9-2.1,0.4c-2.2-1.5-4.9-2.3-7.5-2.3c-7.6,0-13.7,6.1-13.7,13.7c0,7.6,6.1,13.7,13.7,13.7c5.9,0,11.1-3.8,13-9.4
		c0.3-0.8,1.1-1.2,1.9-0.9c0.8,0.3,1.2,1.1,0.9,1.9C38.6,37.1,32.2,41.7,25,41.7z"/>
</g>
</svg>
