<svg 
 xmlns="http://www.w3.org/2000/svg"
 xmlns:xlink="http://www.w3.org/1999/xlink"
 width="68px" height="14px">
<path fill-rule="evenodd"  fill="rgb(51, 51, 51)"
 d="M60.999,14.000 L60.493,14.000 C56.627,14.000 53.493,10.865 53.493,6.999 C53.493,3.133 56.627,-0.001 60.493,-0.001 L60.999,-0.001 C64.866,-0.001 67.999,3.133 67.999,6.999 C67.999,10.865 64.866,14.000 60.999,14.000 ZM34.707,14.000 L34.200,14.000 C30.333,14.000 27.200,10.865 27.200,6.999 C27.200,3.133 30.333,-0.001 34.200,-0.001 L34.707,-0.001 C38.572,-0.001 41.707,3.133 41.707,6.999 C41.707,10.865 38.572,14.000 34.707,14.000 ZM7.506,14.000 L6.999,14.000 C3.134,14.000 -0.001,10.865 -0.001,6.999 C-0.001,3.133 3.134,-0.001 6.999,-0.001 L7.506,-0.001 C11.372,-0.001 14.506,3.133 14.506,6.999 C14.506,10.865 11.372,14.000 7.506,14.000 Z"/>
</svg>