<?xml version="1.0" encoding="utf-8"?>
<!-- Generator: Adobe Illustrator 23.0.3, SVG Export Plug-In . SVG Version: 6.00 Build 0)  -->
<svg version="1.1" id="图层_1" xmlns="http://www.w3.org/2000/svg" xmlns:xlink="http://www.w3.org/1999/xlink" x="0px" y="0px"
	 viewBox="0 0 50 50" style="enable-background:new 0 0 50 50;" xml:space="preserve">
<style type="text/css">
	.st0{fill-rule:evenodd;clip-rule:evenodd;fill:#CCCCCC;}
</style>
<g>
	<path class="st0" d="M14.3,5.8c1.1-1.1,2.9-1.1,4,0L35.7,23c1.1,1.1,1.1,2.8,0,3.9c-1.1,1.1-2.9,1.1-4,0L14.3,9.7
		C13.2,8.6,13.2,6.9,14.3,5.8z"/>
	<path class="st0" d="M14.3,40.3L31.7,23c1.1-1.1,2.9-1.1,4,0c1.1,1.1,1.1,2.8,0,3.9L18.3,44.2c-1.1,1.1-2.9,1.1-4,0
		C13.2,43.1,13.2,41.4,14.3,40.3z"/>
</g>
</svg>
