<svg 
 xmlns="http://www.w3.org/2000/svg"
 xmlns:xlink="http://www.w3.org/1999/xlink"
 width="30px" height="23px">
<path fill-rule="evenodd"  fill="rgb(232, 71, 74)"
 d="M15.015,7.275 C12.695,7.275 10.924,9.175 10.924,11.659 C10.924,14.142 12.695,16.042 15.015,16.042 C17.333,16.042 19.106,14.142 19.106,11.659 C19.106,9.175 17.333,7.275 15.015,7.275 L15.015,7.275 ZM15.015,18.964 C11.196,18.964 8.196,15.749 8.196,11.659 C8.196,7.568 11.196,4.353 15.015,4.353 C18.833,4.353 21.832,7.568 21.832,11.659 C21.832,15.749 18.833,18.964 15.015,18.964 L15.015,18.964 ZM15.015,0.701 C8.196,0.701 2.332,5.230 0.014,11.659 C2.332,18.087 8.196,22.616 15.015,22.616 C21.832,22.616 27.696,18.087 30.015,11.659 C27.696,5.230 21.832,0.701 15.015,0.701 L15.015,0.701 Z"/>
</svg>