<?xml version="1.0" encoding="utf-8"?>
<!-- Generator: Adobe Illustrator 23.0.2, SVG Export Plug-In . SVG Version: 6.00 Build 0)  -->
<svg version="1.1" id="图层_1" xmlns="http://www.w3.org/2000/svg" xmlns:xlink="http://www.w3.org/1999/xlink" x="0px" y="0px"
	 viewBox="0 0 50 50" style="enable-background:new 0 0 50 50;" xml:space="preserve">
<g>
	<path d="M46.2,34.6L45.1,18C45,11.6,39.8,6.4,33.4,6.4H16c-6.4,0-11.7,5.2-11.7,11.7v4.6c0,1.7,0.4,3.3,1,4.7l-1.5,6.9
		c-0.5,2.2,0.1,4.5,1.5,6.3s3.6,2.8,5.9,2.8c2.4,0,4.7-1.2,6.1-3.1l4.3-6h6.5c0.1,0,0.1,0,0.2,0.1l0.1,0.1l4.2,5.8
		c1.4,1.9,3.7,3.1,6.1,3.1c2.3,0,4.4-1,5.9-2.8C46.1,39,46.6,36.8,46.2,34.6z M11.2,38c-0.8,0-1.4-0.5-1.6-0.8
		C9.4,37,9,36.4,9.2,35.6l0.6-2.8c1.5,0.9,3.2,1.5,5.1,1.7l-2,2.8C12.5,37.7,11.8,38,11.2,38z M40.4,37.3c-0.2,0.3-0.7,0.8-1.6,0.8
		c-0.6,0-1.3-0.3-1.6-0.8L33,31.5c-0.4-0.6-0.9-1.1-1.6-1.5c-1-0.6-2.1-0.9-3.2-0.9H16c-2.2,0-4.1-1.1-5.2-2.9
		c-0.1-0.2-0.2-0.5-0.4-0.7c-0.4-0.8-0.6-1.7-0.6-2.7v-4.6c0-3.4,2.8-6.2,6.2-6.2h17.5c3.4,0,6.2,2.8,6.2,6.2c0,0.1,0,0.1,0,0.2
		l1.1,16.8c0,0.1,0,0.3,0.1,0.4C41,36.4,40.6,37,40.4,37.3z"/>
	<ellipse cx="32.1" cy="20.8" rx="4.2" ry="4.2"/>
</g>
</svg>
