<svg 
 xmlns="http://www.w3.org/2000/svg"
 xmlns:xlink="http://www.w3.org/1999/xlink"
 width="70px" height="70px">
<path fill-rule="evenodd"  fill="rgb(194, 194, 194)"
 d="M65.545,39.453 L39.454,39.453 L39.454,65.545 C39.454,68.005 37.460,69.999 35.000,69.999 C32.539,69.999 30.545,68.005 30.545,65.545 L30.545,39.453 L4.454,39.453 C1.994,39.453 -0.001,37.459 -0.001,34.999 C-0.001,32.539 1.994,30.544 4.454,30.544 L30.545,30.544 L30.545,4.453 C30.545,1.994 32.539,-0.001 35.000,-0.001 C37.460,-0.001 39.454,1.994 39.454,4.453 L39.454,30.544 L65.545,30.544 C68.005,30.544 70.000,32.539 70.000,34.999 C70.000,37.459 68.005,39.453 65.545,39.453 Z"/>
</svg>