<svg 
 xmlns="http://www.w3.org/2000/svg"
 xmlns:xlink="http://www.w3.org/1999/xlink"
 width="48px" height="48px">
<path fill-rule="evenodd"  fill-opacity="0.6" fill="rgb(0, 0, 0)"
 d="M-0.000,-0.001 L47.999,-0.001 L47.999,47.999 L23.999,47.999 C10.744,47.999 -0.000,37.254 -0.000,23.999 L-0.000,-0.001 Z"/>
<path fill-rule="evenodd"  fill="rgb(255, 255, 255)"
 d="M27.519,22.999 L34.899,30.379 C35.594,31.075 35.594,32.203 34.899,32.898 C34.203,33.595 33.075,33.595 32.379,32.898 L24.999,25.519 L17.620,32.898 C16.924,33.595 15.796,33.595 15.100,32.898 C14.405,32.203 14.405,31.075 15.100,30.379 L22.480,22.999 L15.100,15.620 C14.405,14.924 14.405,13.795 15.100,13.100 C15.796,12.404 16.924,12.404 17.620,13.100 L24.999,20.480 L32.379,13.100 C33.075,12.404 34.203,12.404 34.899,13.100 C35.594,13.795 35.594,14.924 34.899,15.620 L27.519,22.999 Z"/>
</svg>