<svg 
 xmlns="http://www.w3.org/2000/svg"
 xmlns:xlink="http://www.w3.org/1999/xlink"
 width="54px" height="49px">
<path fill-rule="evenodd"  fill="rgb(203, 203, 203)"
 d="M26.552,15.749 L33.970,23.474 L33.970,22.975 C33.970,18.740 30.860,15.501 26.791,15.501 C26.791,15.749 26.791,15.749 26.552,15.749 L26.552,15.749 ZM16.263,17.743 L19.852,21.481 L19.852,23.225 C19.852,27.461 22.963,30.699 27.031,30.699 C27.509,30.699 27.988,30.699 28.705,30.450 L32.295,34.187 C30.619,35.184 28.945,35.682 27.031,35.682 C20.332,35.682 15.066,30.201 15.066,23.225 C15.066,21.231 15.545,19.487 16.263,17.743 L16.263,17.743 ZM3.103,4.040 L9.563,10.767 C5.495,14.005 2.385,18.241 0.710,23.225 C4.778,34.187 15.066,41.912 27.031,41.912 C30.619,41.912 34.210,41.163 37.559,39.918 L38.516,40.915 L45.456,48.140 L48.566,44.901 L6.213,0.801 L3.103,4.040 ZM27.031,10.767 C33.731,10.767 38.995,16.248 38.995,23.225 C38.995,24.719 38.756,26.463 38.038,27.709 L44.976,34.935 C48.566,31.696 51.438,27.709 53.112,23.225 C49.045,12.262 38.756,4.538 26.791,4.538 C23.442,4.538 20.332,5.286 17.220,6.282 L22.484,11.763 C23.919,11.016 25.596,10.767 27.031,10.767 L27.031,10.767 Z"/>
</svg>