<?xml version="1.0" encoding="utf-8"?>
<!-- Generator: Adobe Illustrator 23.0.2, SVG Export Plug-In . SVG Version: 6.00 Build 0)  -->
<svg version="1.1" id="图层_1" xmlns="http://www.w3.org/2000/svg" xmlns:xlink="http://www.w3.org/1999/xlink" x="0px" y="0px"
	 viewBox="0 0 50 50" style="enable-background:new 0 0 50 50;" xml:space="preserve">
<style type="text/css">
	.st0{fill:#F5F5F5;}
	.st1{fill:#B4B4B4;}
	.st2{fill:#DCDCDC;}
	.st3{fill:#EBEAEA;}
	.st4{fill:#DCDBDC;}
	.st5{fill:#FFFFFF;}
	.st6{fill:#B4B1B1;}
	.st7{fill:#C6C8C7;}
</style>
<path class="st0" d="M3.8,31.8c0,2.4,9.2,4.3,20.5,4.3s20.5-1.9,20.5-4.3c0-2.4-9.2-4.3-20.5-4.3S3.8,29.4,3.8,31.8L3.8,31.8z
	 M3.8,31.8"/>
<path class="st1" d="M2,36.6c0.1,0,0.3-0.1,0.3-0.3C2.2,36.2,2.2,36,2,36H0.7c-0.1,0-0.3,0.1-0.3,0.3c0,0.1,0.1,0.3,0.3,0.3H2z
	 M26,36.6c0.1,0,0.3-0.1,0.3-0.3c0-0.1-0.1-0.3-0.3-0.3H3.2c-0.1,0-0.3,0.1-0.3,0.3c0,0.1,0.1,0.3,0.3,0.3H26z M28.5,36.6
	c0.1,0,0.3-0.1,0.3-0.3c0-0.1-0.1-0.3-0.3-0.3h-1.3c-0.1,0-0.3,0.1-0.3,0.3c0,0.1,0.1,0.3,0.3,0.3H28.5z M49,36.6
	c0.1,0,0.3-0.1,0.3-0.3c0-0.1-0.1-0.3-0.3-0.3h-1.3c-0.1,0-0.3,0.1-0.3,0.3c0,0.1,0.1,0.3,0.3,0.3H49z M46.6,36.6
	c0.1,0,0.3-0.1,0.3-0.3c0-0.1-0.1-0.3-0.3-0.3H30.1c-0.1,0-0.3,0.1-0.3,0.3c0,0.1,0.1,0.3,0.3,0.3H46.6z M20,39.6
	c0.1,0,0.3-0.1,0.3-0.3c0-0.1-0.1-0.3-0.3-0.3h-1.3c-0.1,0-0.3,0.1-0.3,0.3c0,0.1,0.1,0.3,0.3,0.3H20z M35.7,39.6
	c0.1,0,0.3-0.1,0.3-0.3c0-0.1-0.1-0.3-0.3-0.3h-0.6c-0.1,0-0.3,0.1-0.3,0.3c0,0.1,0.1,0.3,0.3,0.3H35.7z M33.9,39.6
	c0.1,0,0.3-0.1,0.3-0.3c0-0.1-0.1-0.3-0.3-0.3H21.6c-0.1,0-0.3,0.1-0.3,0.3c0,0.1,0.1,0.3,0.3,0.3H33.9z M45.8,12.1
	c-0.7,0-1.4,0.6-1.4,1.4c0,0.8,0.6,1.4,1.4,1.4c0.8,0,1.4-0.6,1.4-1.4C47.1,12.7,46.5,12.1,45.8,12.1L45.8,12.1z M45.7,14.3
	c-0.4,0-0.8-0.4-0.8-0.8c0-0.4,0.4-0.8,0.8-0.8c0.4,0,0.8,0.4,0.8,0.8C46.5,13.9,46.1,14.3,45.7,14.3L45.7,14.3z M41.9,21.8
	c-0.6,0-0.9,0.4-0.9,0.9c0,0.5,0.4,0.9,0.9,0.9c0.5,0,0.9-0.4,0.9-0.9C42.8,22.1,42.4,21.8,41.9,21.8L41.9,21.8z M41.8,23
	c-0.1,0-0.3-0.1-0.3-0.3c0-0.2,0.1-0.3,0.3-0.3c0.2,0,0.3,0.1,0.3,0.3C42.1,22.9,42,23,41.8,23L41.8,23z M7.3,10.2
	c-1.1,0-1.9,0.8-1.9,1.9c0,1.1,0.8,1.9,1.9,1.9c1.1,0,1.9-0.8,1.9-1.9C9.2,11.1,8.4,10.2,7.3,10.2L7.3,10.2z M7.4,13.4
	c-0.7,0-1.3-0.6-1.3-1.3c0-0.7,0.6-1.3,1.3-1.3c0.7,0,1.3,0.6,1.3,1.3C8.6,12.8,8.1,13.4,7.4,13.4L7.4,13.4z M7.4,13.4"/>
<path class="st2" d="M14.7,21.5h-0.4c-0.1,0-0.2-0.1-0.2-0.2c0-0.1,0.1-0.2,0.2-0.2h0.4c0.1,0,0.2,0.1,0.2,0.2
	C14.9,21.5,14.8,21.5,14.7,21.5L14.7,21.5z M14.2,20.8c-0.1,0.1-0.2,0.1-0.3,0c-0.1-0.1-0.1-0.2,0-0.3l0.3-0.3
	c0.1-0.1,0.2-0.1,0.3,0c0.1,0.1,0.1,0.2,0,0.3L14.2,20.8z M13.4,22.9c-0.1,0-0.2-0.1-0.2-0.2v-0.4c0-0.1,0.1-0.2,0.2-0.2
	c0.1,0,0.2,0.1,0.2,0.2v0.4C13.5,22.8,13.4,22.9,13.4,22.9L13.4,22.9z M13.4,20.5c-0.1,0-0.2-0.1-0.2-0.2V20c0-0.1,0.1-0.2,0.2-0.2
	c0.1,0,0.2,0.1,0.2,0.2v0.4C13.5,20.5,13.4,20.5,13.4,20.5L13.4,20.5z M12.5,22.4c-0.1,0.1-0.2,0.1-0.3,0c-0.1-0.1-0.1-0.2,0-0.3
	l0.3-0.3c0.1-0.1,0.2-0.1,0.3,0c0.1,0.1,0.1,0.2,0,0.3L12.5,22.4z M12.5,20.8l-0.3-0.3c-0.1-0.1-0.1-0.2,0-0.3
	c0.1-0.1,0.2-0.1,0.3,0l0.3,0.3c0.1,0.1,0.1,0.2,0,0.3C12.7,20.9,12.6,20.9,12.5,20.8L12.5,20.8z M12.6,21.4c0,0.1-0.1,0.2-0.2,0.2
	H12c-0.1,0-0.2-0.1-0.2-0.2c0-0.1,0.1-0.2,0.2-0.2h0.4C12.4,21.2,12.6,21.2,12.6,21.4L12.6,21.4z M14.2,21.9l0.3,0.3
	c0.1,0.1,0.1,0.2,0,0.3c-0.1,0.1-0.2,0.1-0.3,0l-0.3-0.3c-0.1-0.1-0.1-0.2,0-0.3C14,21.8,14.1,21.8,14.2,21.9L14.2,21.9z M14.2,21.9
	"/>
<path class="st3" d="M6.6,32.8c0,1.8,7.9,3.3,17.7,3.3s17.7-1.5,17.7-3.3s-7.9-3.3-17.7-3.3S6.6,31,6.6,32.8L6.6,32.8z M6.6,32.8"/>
<path class="st4" d="M10.5,34.1c0,1.1,6.2,1.9,13.7,1.9c7.6,0,13.7-0.8,13.7-1.9s-6.2-1.9-13.7-1.9C16.7,32.2,10.5,33,10.5,34.1
	L10.5,34.1z M10.5,34.1"/>
<path class="st5" d="M27.8,33.7h-7c-1.4,0-2.5-1.1-2.5-2.5V18.5c0-1.4,1.1-2.5,2.5-2.5h7c1.4,0,2.5,1.1,2.5,2.5v12.7
	C30.3,32.6,29.1,33.7,27.8,33.7z"/>
<path class="st6" d="M28.5,33.7H20c-1,0-1.7-0.8-1.7-1.7V17.8c0-1,0.8-1.7,1.7-1.7h8.5c1,0,1.7,0.8,1.7,1.7V32
	C30.3,33,29.5,33.7,28.5,33.7L28.5,33.7z M20,16.6c-0.6,0-1.1,0.6-1.1,1.1v14.2c0,0.6,0.6,1.1,1.1,1.1h8.5c0.6,0,1.1-0.6,1.1-1.1
	V17.7c0-0.6-0.6-1.1-1.1-1.1H20z M20,16.6"/>
<path class="st7" d="M27.7,19.5h-6.9c-0.2,0-0.3-0.1-0.3-0.3c0-0.2,0.1-0.3,0.3-0.3h6.9c0.2,0,0.3,0.1,0.3,0.3
	C28.1,19.4,27.9,19.5,27.7,19.5L27.7,19.5z M25.2,21.3h-4.4c-0.2,0-0.3-0.1-0.3-0.3c0-0.2,0.1-0.3,0.3-0.3h4.4
	c0.2,0,0.3,0.1,0.3,0.3C25.6,21.2,25.4,21.3,25.2,21.3L25.2,21.3z M26.5,21.3c-0.1,0-0.2-0.1-0.2-0.1c-0.1-0.1-0.1-0.1-0.1-0.2
	c0-0.1,0.1-0.2,0.1-0.2c0.1-0.1,0.4-0.1,0.4,0c0.1,0.1,0.1,0.1,0.1,0.2c0,0.1-0.1,0.2-0.1,0.2S26.5,21.3,26.5,21.3L26.5,21.3z
	 M26.5,21.3"/>
<path class="st7" d="M27.7,24h-6.9c-0.2,0-0.3-0.1-0.3-0.3c0-0.2,0.1-0.3,0.3-0.3h6.9c0.2,0,0.3,0.1,0.3,0.3
	C28.1,23.9,27.9,24,27.7,24L27.7,24z M25.2,25.8h-4.4c-0.2,0-0.3-0.1-0.3-0.3c0-0.2,0.1-0.3,0.3-0.3h4.4c0.2,0,0.3,0.1,0.3,0.3
	C25.6,25.7,25.4,25.8,25.2,25.8L25.2,25.8z M26.5,25.8c-0.1,0-0.2-0.1-0.2-0.1c-0.1-0.1-0.1-0.1-0.1-0.2c0-0.1,0.1-0.2,0.1-0.2
	c0.1-0.1,0.4-0.1,0.4,0c0.1,0.1,0.1,0.1,0.1,0.2c0,0.1-0.1,0.2-0.1,0.2S26.5,25.8,26.5,25.8L26.5,25.8z M26.5,25.8"/>
<path class="st7" d="M27.7,28.4h-6.9c-0.2,0-0.3-0.1-0.3-0.3c0-0.2,0.1-0.3,0.3-0.3h6.9c0.2,0,0.3,0.1,0.3,0.3
	C28.1,28.3,27.9,28.4,27.7,28.4L27.7,28.4z M25.2,30.3h-4.4c-0.2,0-0.3-0.1-0.3-0.3c0-0.2,0.1-0.3,0.3-0.3h4.4
	c0.2,0,0.3,0.1,0.3,0.3C25.6,30.1,25.4,30.3,25.2,30.3L25.2,30.3z M26.5,30.3c-0.1,0-0.2-0.1-0.2-0.1c-0.1-0.1-0.1-0.1-0.1-0.2
	c0-0.1,0.1-0.2,0.1-0.2c0.1-0.1,0.4-0.1,0.4,0c0.1,0.1,0.1,0.1,0.1,0.2c0,0.1-0.1,0.2-0.1,0.2S26.5,30.3,26.5,30.3L26.5,30.3z
	 M26.5,30.3"/>
<path class="st6" d="M32.9,31.2c-0.1,0-0.2-0.1-0.2-0.1c-0.1-0.1-0.1-0.1-0.1-0.2c0-0.1,0.1-0.2,0.1-0.2c0.1-0.1,0.4-0.1,0.4,0
	c0.1,0.1,0.1,0.1,0.1,0.2c0,0.1-0.1,0.2-0.1,0.2C33.1,31.2,33,31.2,32.9,31.2L32.9,31.2z M32.9,31.2"/>
<path class="st1" d="M43.6,39.6c0.1,0,0.3-0.1,0.3-0.3c0-0.1-0.1-0.3-0.3-0.3h-6.7c-0.1,0-0.3,0.1-0.3,0.3c0,0.1,0.1,0.3,0.3,0.3
	H43.6z M43.6,39.6"/>
</svg>
