<?xml version="1.0" encoding="utf-8"?>
<!-- Generator: Adobe Illustrator 23.0.2, SVG Export Plug-In . SVG Version: 6.00 Build 0)  -->
<svg version="1.1" id="图层_1" xmlns="http://www.w3.org/2000/svg" xmlns:xlink="http://www.w3.org/1999/xlink" x="0px" y="0px"
	 viewBox="0 0 50 50" style="enable-background:new 0 0 50 50;" xml:space="preserve">
<style type="text/css">
	.st0{fill:#DCDCDC;}
</style>
<path class="st0" d="M25,3.8C13.3,3.8,3.8,13.3,3.8,25S13.3,46.2,25,46.2S46.2,36.7,46.2,25S36.7,3.8,25,3.8z M37.7,20.2L23.8,34.1
	c-0.6,0.6-1.4,0.9-2.1,0.9s-1.5-0.3-2.1-0.9l-7.2-7.2c-1.2-1.2-1.2-3.1,0-4.2c1.2-1.2,3.1-1.2,4.2,0l5.1,5.1l11.8-11.8
	c1.2-1.2,3.1-1.2,4.2,0C38.8,17.1,38.8,19,37.7,20.2z"/>
</svg>
