<?xml version="1.0" encoding="utf-8"?>
<!-- Generator: Adobe Illustrator 23.0.2, SVG Export Plug-In . SVG Version: 6.00 Build 0)  -->
<svg version="1.1" id="图层_1" xmlns="http://www.w3.org/2000/svg" xmlns:xlink="http://www.w3.org/1999/xlink" x="0px" y="0px"
	 viewBox="0 0 50 50" style="enable-background:new 0 0 50 50;" xml:space="preserve">
<style type="text/css">
	.st0{fill:#F5F5F5;}
	.st1{fill:#B4B4B4;}
	.st2{fill:#DCDCDC;}
	.st3{fill:#EBEAEA;}
	.st4{fill:#DCDBDC;}
	.st5{fill:#C6C8C7;}
	.st6{fill:#B4B3B3;}
	.st7{fill:#FFFFFF;}
	.st8{fill:#B4B1B1;}
	.st9{fill:#C7C8C8;}
</style>
<g>
	<path class="st0" d="M3.8,31.8c0,2.4,9.2,4.3,20.5,4.3s20.5-1.9,20.5-4.3s-9.2-4.3-20.5-4.3S3.8,29.4,3.8,31.8L3.8,31.8z"/>
	<path class="st1" d="M2,36.6c0.1,0,0.3-0.1,0.3-0.3C2.2,36.2,2.2,36,2,36H0.7c-0.1,0-0.3,0.1-0.3,0.3c0,0.1,0.1,0.3,0.3,0.3H2z
		 M26,36.6c0.1,0,0.3-0.1,0.3-0.3c0-0.1-0.1-0.3-0.3-0.3H3.2c-0.1,0-0.3,0.1-0.3,0.3c0,0.1,0.1,0.3,0.3,0.3H26z M28.5,36.6
		c0.1,0,0.3-0.1,0.3-0.3c0-0.1-0.1-0.3-0.3-0.3h-1.3c-0.1,0-0.3,0.1-0.3,0.3c0,0.1,0.1,0.3,0.3,0.3H28.5z M49,36.6
		c0.1,0,0.3-0.1,0.3-0.3c0-0.1-0.1-0.3-0.3-0.3h-1.3c-0.1,0-0.3,0.1-0.3,0.3c0,0.1,0.1,0.3,0.3,0.3H49z M46.6,36.6
		c0.1,0,0.3-0.1,0.3-0.3c0-0.1-0.1-0.3-0.3-0.3H30.1c-0.1,0-0.3,0.1-0.3,0.3c0,0.1,0.1,0.3,0.3,0.3H46.6z M20,39.6
		c0.1,0,0.3-0.1,0.3-0.3c0-0.1-0.1-0.3-0.3-0.3h-1.3c-0.1,0-0.3,0.1-0.3,0.3c0,0.1,0.1,0.3,0.3,0.3H20z M35.7,39.6
		c0.1,0,0.3-0.1,0.3-0.3c0-0.1-0.1-0.3-0.3-0.3h-0.6c-0.1,0-0.3,0.1-0.3,0.3c0,0.1,0.1,0.3,0.3,0.3H35.7z M33.9,39.6
		c0.1,0,0.3-0.1,0.3-0.3c0-0.1-0.1-0.3-0.3-0.3H21.6c-0.1,0-0.3,0.1-0.3,0.3c0,0.1,0.1,0.3,0.3,0.3H33.9z M45.8,12.1
		c-0.7,0-1.4,0.6-1.4,1.4c0,0.8,0.6,1.4,1.4,1.4c0.8,0,1.4-0.6,1.4-1.4C47.1,12.7,46.5,12.1,45.8,12.1L45.8,12.1z M45.7,14.3
		c-0.4,0-0.8-0.4-0.8-0.8c0-0.4,0.4-0.8,0.8-0.8c0.4,0,0.8,0.4,0.8,0.8C46.5,13.9,46.1,14.3,45.7,14.3L45.7,14.3z M41.9,21.8
		c-0.6,0-0.9,0.4-0.9,0.9s0.4,0.9,0.9,0.9s0.9-0.4,0.9-0.9C42.8,22.1,42.4,21.8,41.9,21.8L41.9,21.8z M41.8,23
		c-0.1,0-0.3-0.1-0.3-0.3c0-0.2,0.1-0.3,0.3-0.3s0.3,0.1,0.3,0.3S42,23,41.8,23L41.8,23z M7.3,10.2c-1.1,0-1.9,0.8-1.9,1.9
		S6.2,14,7.3,14s1.9-0.8,1.9-1.9C9.2,11.1,8.4,10.2,7.3,10.2L7.3,10.2z M7.4,13.4c-0.7,0-1.3-0.6-1.3-1.3s0.6-1.3,1.3-1.3
		s1.3,0.6,1.3,1.3C8.6,12.8,8.1,13.4,7.4,13.4L7.4,13.4z"/>
	<path class="st2" d="M17.4,14.2H17c-0.1,0-0.2-0.1-0.2-0.2c0-0.1,0.1-0.2,0.2-0.2h0.4c0.1,0,0.2,0.1,0.2,0.2
		C17.6,14.1,17.5,14.2,17.4,14.2L17.4,14.2z M16.9,13.5c-0.1,0.1-0.2,0.1-0.3,0c-0.1-0.1-0.1-0.2,0-0.3l0.3-0.3
		c0.1-0.1,0.2-0.1,0.3,0c0.1,0.1,0.1,0.2,0,0.3L16.9,13.5z M16,15.6c-0.1,0-0.2-0.1-0.2-0.2V15c0-0.1,0.1-0.2,0.2-0.2
		c0.1,0,0.2,0.1,0.2,0.2v0.4C16.2,15.5,16.1,15.6,16,15.6L16,15.6z M16,13.2c-0.1,0-0.2-0.1-0.2-0.2v-0.4c0-0.1,0.1-0.2,0.2-0.2
		c0.1,0,0.2,0.1,0.2,0.2V13C16.2,13.2,16.1,13.2,16,13.2L16,13.2z M15.2,15.1c-0.1,0.1-0.2,0.1-0.3,0s-0.1-0.2,0-0.3l0.3-0.3
		c0.1-0.1,0.2-0.1,0.3,0s0.1,0.2,0,0.3L15.2,15.1z M15.2,13.5l-0.3-0.3c-0.1-0.1-0.1-0.2,0-0.3s0.2-0.1,0.3,0l0.3,0.3
		c0.1,0.1,0.1,0.2,0,0.3S15.3,13.6,15.2,13.5L15.2,13.5z M15.3,14.1c0,0.1-0.1,0.2-0.2,0.2h-0.4c-0.1,0-0.2-0.1-0.2-0.2
		c0-0.1,0.1-0.2,0.2-0.2h0.4C15.1,13.8,15.3,13.9,15.3,14.1L15.3,14.1z M16.9,14.6l0.3,0.3c0.1,0.1,0.1,0.2,0,0.3s-0.2,0.1-0.3,0
		l-0.3-0.3c-0.1-0.1-0.1-0.2,0-0.3S16.8,14.5,16.9,14.6L16.9,14.6z"/>
	<path class="st3" d="M6.6,32.8c0,1.8,7.9,3.3,17.7,3.3S42,34.6,42,32.8s-7.9-3.3-17.7-3.3S6.6,31,6.6,32.8L6.6,32.8z"/>
	<path class="st4" d="M10.5,34.1c0,1.1,6.2,1.9,13.7,1.9c7.6,0,13.7-0.8,13.7-1.9s-6.2-1.9-13.7-1.9C16.7,32.2,10.5,33,10.5,34.1
		L10.5,34.1z"/>
	<path class="st5" d="M31,23.2h-6.7c-0.4,0-0.8-0.3-1.1-0.6c-0.3-0.5-0.8-0.8-1.5-0.8h-4.6c-0.9,0-1.6,0.6-1.6,1.5v8.3
		c0,0.6,0.5,1,1.1,1h14.3c0.6,0,1.1-0.4,1.1-1v-7.4C32.1,23.6,31.6,23.2,31,23.2L31,23.2z"/>
	<path class="st6" d="M31.1,22.8h-6.7c-0.3,0-0.6-0.2-0.8-0.5c-0.3-0.6-1-1-1.7-1h-4.6c-1.1,0-2,0.8-2,1.8v8.3
		c0,0.8,0.6,1.3,1.4,1.3H31c0.8,0,1.4-0.6,1.5-1.4V24C32.5,23.4,31.9,22.8,31.1,22.8L31.1,22.8z M31.9,31.5c0,0.4-0.4,0.7-0.8,0.7
		H16.8c-0.4,0-0.8-0.3-0.8-0.7v-8.3c0-0.6,0.6-1.1,1.3-1.1H22c0.5,0,0.9,0.2,1.1,0.6c0.3,0.6,0.8,0.8,1.3,0.8h6.7
		c0.4,0,0.8,0.3,0.8,0.7L31.9,31.5L31.9,31.5z"/>
	<path class="st7" d="M24.4,29.1h-0.1c-3.2,0-5.6-2.5-5.6-5.6V22c0-3.2,2.5-5.6,5.6-5.6h0.1c3.1,0,5.6,2.5,5.6,5.6v1.4
		C30,26.5,27.5,29.1,24.4,29.1L24.4,29.1z"/>
	<path class="st8" d="M28.5,29.3H20c-1,0-1.7-0.8-1.7-1.7v-9.8c0-1,0.8-1.7,1.7-1.7h8.5c1,0,1.7,0.8,1.7,1.7v9.8
		C30.3,28.6,29.5,29.3,28.5,29.3L28.5,29.3z M20,16.6c-0.6,0-1.1,0.6-1.1,1.1v9.8c0,0.6,0.6,1.1,1.1,1.1h8.5c0.6,0,1.1-0.6,1.1-1.1
		v-9.8c0-0.6-0.6-1.1-1.1-1.1H20z"/>
	<path class="st5" d="M27.7,19.5h-6.9c-0.2,0-0.3-0.1-0.3-0.3c0-0.2,0.1-0.3,0.3-0.3h6.9c0.2,0,0.3,0.1,0.3,0.3
		C28.1,19.4,27.9,19.5,27.7,19.5L27.7,19.5z M25.2,21.3h-4.4c-0.2,0-0.3-0.1-0.3-0.3c0-0.2,0.1-0.3,0.3-0.3h4.4
		c0.2,0,0.3,0.1,0.3,0.3C25.6,21.2,25.4,21.3,25.2,21.3L25.2,21.3z M26.5,21.3c-0.1,0-0.2-0.1-0.2-0.1c-0.1-0.1-0.1-0.1-0.1-0.2
		s0.1-0.2,0.1-0.2c0.1-0.1,0.4-0.1,0.4,0c0.1,0.1,0.1,0.1,0.1,0.2s-0.1,0.2-0.1,0.2L26.5,21.3L26.5,21.3z"/>
	<path class="st9" d="M31.7,24.6h-6.9c-0.5,0-0.9-0.3-1.1-0.6c-0.3-0.5-0.8-0.8-1.5-0.8h-4.8c-0.9,0-1.7,0.6-1.7,1.5V33
		c0,0.6,0.6,1,1.1,1h14.9c0.6,0,1.1-0.4,1.1-1v-7.4C32.9,25.1,32.4,24.6,31.7,24.6L31.7,24.6z"/>
	<path class="st9" d="M31.7,24.5h-6.9c-0.5,0-0.9-0.2-1.1-0.6c-0.3-0.4-0.8-0.7-1.5-0.7h-4.8c-0.9,0-1.7,0.6-1.7,1.3v7.1
		c0,0.5,0.6,0.9,1.1,0.9h14.9c0.6,0,1.1-0.4,1.1-0.9v-6.2C32.9,24.9,32.4,24.5,31.7,24.5L31.7,24.5z"/>
	<path class="st6" d="M31.7,34.3H16.8c-0.8,0-1.5-0.6-1.5-1.3v-8.3c0-1,0.9-1.8,2-1.8h4.8c0.8,0,1.5,0.4,1.7,1
		c0.2,0.3,0.5,0.5,0.8,0.5h6.9c0.8,0,1.5,0.6,1.5,1.3l0.1,4.1c0,0.2-0.1,0.3-0.3,0.3s-0.3-0.1-0.3-0.3l-0.1-4.1
		c0-0.4-0.4-0.7-0.8-0.7h-6.9c-0.6,0-1.1-0.3-1.4-0.8c-0.2-0.4-0.7-0.6-1.3-0.6h-4.9c-0.8,0-1.3,0.6-1.3,1.1V33
		c0,0.4,0.4,0.7,0.8,0.7h14.9c0.4,0,0.8-0.3,0.8-0.7v-1c0-0.2,0.1-0.3,0.3-0.3s0.3,0.1,0.3,0.3v0.8C33.2,33.7,32.6,34.3,31.7,34.3
		L31.7,34.3z"/>
	<path class="st8" d="M32.9,31.2c-0.1,0-0.2-0.1-0.2-0.1c-0.1-0.1-0.1-0.1-0.1-0.2s0.1-0.2,0.1-0.2c0.1-0.1,0.4-0.1,0.4,0
		c0.1,0.1,0.1,0.1,0.1,0.2s-0.1,0.2-0.1,0.2C33.1,31.2,33,31.2,32.9,31.2L32.9,31.2z"/>
	<path class="st1" d="M43.6,39.6c0.1,0,0.3-0.1,0.3-0.3c0-0.1-0.1-0.3-0.3-0.3h-6.7c-0.1,0-0.3,0.1-0.3,0.3c0,0.1,0.1,0.3,0.3,0.3
		H43.6z"/>
	<path class="st7" d="M20.8,28.5h0.5v-0.3h0.3v0.3h0.7v0.2h-0.7V29c0.2,0,0.4,0,0.6,0c0,0.1,0,0.2,0,0.3c-0.2,0-0.4,0-0.6,0v0.3
		h-0.3v-0.3c-0.3,0-0.6,0-1,0.1v-0.3c0.4,0,0.7,0,1,0v-0.3h-0.8v-0.2c0.1-0.1,0.2-0.3,0.3-0.5h-0.4v-0.2h0.5
		c0.1-0.1,0.1-0.3,0.2-0.4l0.3,0.1c0,0.1-0.1,0.2-0.2,0.3h1.1v0.2h-1.2C21,28.2,20.9,28.4,20.8,28.5L20.8,28.5z M20.9,29.7h2.8v1.7
		h-0.3v-0.2h-2.2v0.2h-0.3V29.7z M23.4,30h-2.2v0.4h2.2V30z M21.2,31h2.2v-0.4h-2.2V31z M22.5,27.8c0.5,0,1.1-0.1,1.6-0.1l0.1,0.3
		c-0.5,0.1-1,0.1-1.4,0.1v0.5h1.5v0.2h-0.6v0.9h-0.3v-0.9h-0.7c0,0.4-0.2,0.7-0.4,0.9c-0.1-0.1-0.1-0.1-0.2-0.2
		c0.2-0.2,0.4-0.6,0.4-1.1V27.8L22.5,27.8z M24.5,29.1h1.6c0.1-0.3,0.1-0.6,0.1-0.9h-1.4v-0.3h3.3v0.3h-1.6c0,0.3-0.1,0.7-0.1,0.9h2
		v0.3h-2.1c-0.2,0.9-0.8,1.6-1.7,2.1c-0.1-0.1-0.1-0.2-0.2-0.3c0.8-0.4,1.3-1,1.6-1.8h-1.5L24.5,29.1L24.5,29.1z M26.6,29.7h0.3v1.1
		c0,0.2,0.1,0.3,0.3,0.3h0.6c0.2,0,0.3-0.1,0.3-0.2c0-0.2,0-0.4,0.1-0.6c0.1,0,0.2,0.1,0.3,0.1c0,0.3,0,0.5-0.1,0.6
		c0,0.3-0.2,0.4-0.6,0.4h-0.7c-0.4,0-0.5-0.2-0.5-0.6L26.6,29.7L26.6,29.7z"/>
</g>
</svg>
