<svg 
 xmlns="http://www.w3.org/2000/svg"
 xmlns:xlink="http://www.w3.org/1999/xlink"
 width="54px" height="62px">
<path fill-rule="evenodd"  fill="rgb(203, 203, 203)"
 d="M48.885,61.879 L5.099,61.879 C2.681,61.879 0.720,60.047 0.720,57.787 L0.720,27.112 C0.720,24.855 2.680,23.023 5.099,23.023 L48.885,23.023 C51.303,23.023 53.264,24.855 53.264,27.112 L53.264,57.787 C53.264,60.047 51.303,61.879 48.885,61.879 L48.885,61.879 ZM26.992,33.248 C23.364,33.248 20.424,35.995 20.424,39.384 C20.424,41.647 21.754,43.606 23.708,44.667 L23.708,50.504 C23.708,52.267 25.180,53.699 26.992,53.699 C28.806,53.699 30.276,52.267 30.276,50.504 L30.276,44.667 C32.230,43.606 33.560,41.647 33.560,39.384 C33.560,35.995 30.620,33.250 26.992,33.250 L26.992,33.250 L26.992,33.248 ZM26.992,6.662 C19.738,6.662 13.856,12.155 13.856,18.932 L7.289,18.932 C7.289,8.768 16.110,0.528 26.992,0.528 C37.874,0.528 46.697,8.768 46.697,18.932 L40.128,18.932 C40.128,12.155 34.246,6.662 26.992,6.662 L26.992,6.662 Z"/>
</svg>