<svg 
 xmlns="http://www.w3.org/2000/svg"
 xmlns:xlink="http://www.w3.org/1999/xlink"
 width="121px" height="121px">
<path fill-rule="evenodd"  fill="rgb(27, 169, 238)"
 d="M60.532,-0.001 C93.927,-0.001 120.999,27.086 120.999,60.499 C120.999,93.912 93.927,120.999 60.532,120.999 C27.137,120.999 0.065,93.912 0.065,60.499 C0.065,27.086 27.137,-0.001 60.532,-0.001 Z"/>
<path fill-rule="evenodd"  fill="rgb(255, 255, 255)"
 d="M31.962,65.811 C29.635,71.007 29.256,75.964 31.125,76.891 C32.413,77.529 34.432,76.076 36.323,73.409 C37.071,76.314 38.924,78.945 41.569,81.054 C38.794,82.024 36.982,83.613 36.982,85.411 C36.982,88.367 41.886,90.760 47.941,90.760 C53.399,90.760 57.921,88.818 58.755,86.261 C58.981,86.259 59.842,86.259 60.058,86.261 C60.897,88.815 65.423,90.760 70.879,90.760 C76.934,90.760 81.838,88.365 81.838,85.411 C81.838,83.616 80.026,82.024 77.250,81.054 C79.892,78.943 81.751,76.314 82.497,73.409 C84.387,76.076 86.401,77.529 87.690,76.891 C89.561,75.964 89.191,71.003 86.856,65.811 C85.028,61.731 82.548,58.723 80.651,58.060 C80.678,57.801 80.692,57.536 80.692,57.274 C80.692,55.698 80.232,54.240 79.439,53.051 C79.453,52.958 79.453,52.864 79.453,52.772 C79.453,52.047 79.273,51.365 78.962,50.778 C78.482,40.166 71.196,31.738 59.410,31.738 C47.615,31.738 40.328,40.166 39.853,50.778 C39.539,51.370 39.358,52.050 39.358,52.772 C39.358,52.864 39.365,52.958 39.369,53.051 C38.586,54.240 38.124,55.695 38.124,57.274 C38.124,57.536 38.134,57.799 38.158,58.060 C36.275,58.723 33.785,61.735 31.962,65.811 L31.962,65.811 Z"/>
</svg>