<svg xmlns="http://www.w3.org/2000/svg" width="38" height="44" viewBox="0 0 38 44">
  <metadata><?xpacket begin="﻿" id="W5M0MpCehiHzreSzNTczkc9d"?>
<x:xmpmeta xmlns:x="adobe:ns:meta/" x:xmptk="Adobe XMP Core 5.6-c142 79.160924, 2017/07/13-01:06:39        ">
   <rdf:RDF xmlns:rdf="http://www.w3.org/1999/02/22-rdf-syntax-ns#">
      <rdf:Description rdf:about=""/>
   </rdf:RDF>
</x:xmpmeta>
                                                                                                    
                                                                                                    
                                                                                                    
                                                                                                    
                                                                                                    
                                                                                                    
                                                                                                    
                                                                                                    
                                                                                                    
                                                                                                    
                                                                                                    
                                                                                                    
                                                                                                    
                                                                                                    
                                                                                                    
                                                                                                    
                                                                                                    
                                                                                                    
                                                                                                    
                                                                                                    
                           
<?xpacket end="w"?></metadata>
<defs>
    <style>
      .cls-1 {
        fill: #fff;
        fill-rule: evenodd;
      }
    </style>
  </defs>
  <path id="形状_2381" data-name="形状 2381" class="cls-1" d="M4439.8,938.952h-17.61a10.166,10.166,0,0,1-10.19-10.12V905.058a10.165,10.165,0,0,1,10.19-10.119h17.61a10.165,10.165,0,0,1,10.19,10.119v23.774A10.166,10.166,0,0,1,4439.8,938.952ZM4422.19,900.9a4.179,4.179,0,0,0-4.19,4.158v23.774a4.18,4.18,0,0,0,4.19,4.159h17.61a4.18,4.18,0,0,0,4.19-4.159V905.058a4.179,4.179,0,0,0-4.19-4.158h-17.61Zm15.03,13.378h-12.45a2.988,2.988,0,0,1-3-2.98h0a2.989,2.989,0,0,1,3-2.981h12.45a2.989,2.989,0,0,1,3,2.981h0A2.988,2.988,0,0,1,4437.22,914.278Zm-8.81,11.295h-3.64a2.988,2.988,0,0,1-3-2.98h0a2.988,2.988,0,0,1,3-2.981h3.64a2.988,2.988,0,0,1,3,2.981h0A2.988,2.988,0,0,1,4428.41,925.573Z" transform="translate(-4412 -894.938)"/>
</svg>
