<svg 
 xmlns="http://www.w3.org/2000/svg"
 xmlns:xlink="http://www.w3.org/1999/xlink"
 width="43px" height="43px">
<path fill-rule="evenodd"  fill="rgb(233, 72, 77)"
 d="M21.216,0.687 C9.615,0.687 0.209,10.092 0.209,21.694 C0.209,33.296 9.615,42.701 21.216,42.701 C32.818,42.701 42.224,33.296 42.224,21.694 C42.224,10.092 32.818,0.687 21.216,0.687 ZM33.784,16.906 L19.995,30.695 C19.414,31.277 18.652,31.567 17.889,31.567 C17.128,31.567 16.364,31.277 15.783,30.695 L8.649,23.560 C7.485,22.398 7.485,20.512 8.649,19.349 C9.812,18.185 11.698,18.185 12.861,19.349 L17.889,24.377 L29.572,12.694 C30.737,11.530 32.621,11.530 33.784,12.694 C34.949,13.857 34.949,15.742 33.784,16.906 Z"/>
</svg>