<svg 
 xmlns="http://www.w3.org/2000/svg"
 xmlns:xlink="http://www.w3.org/1999/xlink"
 width="70px" height="61px">
<defs>
<linearGradient id="PSgrad_0" x1="0%" x2="76.604%" y1="0%" y2="64.279%">
  <stop offset="0%" stop-color="rgb(100,100,100)" stop-opacity="0.37" />
  <stop offset="100%" stop-color="rgb(255,255,255)" stop-opacity="0.37" />
</linearGradient>

</defs>
<path fill-rule="evenodd"  fill="rgb(234, 72, 78)"
 d="M-0.001,-0.001 L39.500,-0.001 C56.343,-0.001 69.999,13.655 69.999,30.500 C69.999,47.344 56.343,60.999 39.500,60.999 L-0.001,60.999 L-0.001,-0.001 Z"/>
<path fill="url(#PSgrad_0)"
 d="M-0.001,-0.001 L39.500,-0.001 C56.343,-0.001 69.999,13.655 69.999,30.500 C69.999,47.344 56.343,60.999 39.500,60.999 L-0.001,60.999 L-0.001,-0.001 Z"/>
<path fill-rule="evenodd"  fill="rgb(255, 255, 255)"
 d="M52.927,46.199 C51.437,48.000 49.351,48.999 47.066,48.999 C44.681,48.999 42.398,47.800 41.006,45.899 L36.834,40.100 L36.735,39.999 C36.635,39.899 36.635,39.899 36.536,39.899 L30.079,39.899 L25.808,45.899 C24.417,47.800 22.132,48.999 19.748,48.999 C17.464,48.999 15.277,48.000 13.887,46.199 C12.497,44.400 11.901,42.099 12.397,39.899 L13.887,33.000 C13.291,31.600 12.894,29.999 12.894,28.300 L12.894,23.699 C12.894,17.199 18.159,12.000 24.517,12.000 L41.801,12.000 C48.159,12.000 53.325,17.199 53.423,23.600 L54.516,40.200 C54.914,42.400 54.416,44.599 52.927,46.199 ZM18.159,42.799 C18.358,43.099 18.954,43.600 19.748,43.600 C20.344,43.600 21.040,43.300 21.437,42.900 L23.424,40.100 C21.536,39.899 19.847,39.299 18.358,38.399 L17.761,41.199 C17.562,42.000 17.961,42.600 18.159,42.799 ZM49.152,40.800 L48.059,23.999 C48.059,23.900 48.059,23.900 48.059,23.799 C48.059,20.399 45.278,17.600 41.901,17.600 L24.517,17.600 C21.139,17.600 18.358,20.399 18.358,23.799 L18.358,28.399 C18.358,29.399 18.557,30.299 18.954,31.100 C19.152,31.300 19.251,31.600 19.351,31.799 C20.444,33.600 22.330,34.700 24.517,34.700 L36.635,34.700 C37.728,34.700 38.821,34.999 39.814,35.600 C40.510,35.999 41.006,36.499 41.403,37.099 L45.576,42.900 C45.874,43.399 46.569,43.699 47.166,43.699 C48.059,43.699 48.556,43.199 48.755,42.900 C48.954,42.600 49.351,42.000 49.251,41.199 C49.152,41.100 49.152,40.899 49.152,40.800 ZM40.510,30.599 C38.206,30.599 36.338,28.719 36.338,26.400 C36.338,24.080 38.206,22.199 40.510,22.199 C42.814,22.199 44.681,24.080 44.681,26.400 C44.681,28.719 42.814,30.599 40.510,30.599 Z"/>
</svg>