<?xml version="1.0" encoding="utf-8"?>
<!-- Generator: Adobe Illustrator 23.0.2, SVG Export Plug-In . SVG Version: 6.00 Build 0)  -->
<svg version="1.1" id="图层_1" xmlns="http://www.w3.org/2000/svg" xmlns:xlink="http://www.w3.org/1999/xlink" x="0px" y="0px"
	 viewBox="0 0 50 50" style="enable-background:new 0 0 50 50;" xml:space="preserve">
<path d="M33.8,47.2H16.2C10.6,47.2,6,42.6,6,37V13C6,7.4,10.6,2.9,16.2,2.9h17.6C39.4,2.9,44,7.4,44,13V37
	C44,42.6,39.4,47.2,33.8,47.2z M16.2,8.9c-2.3,0-4.2,1.9-4.2,4.2V37c0,2.3,1.9,4.2,4.2,4.2h17.6c2.3,0,4.2-1.9,4.2-4.2V13
	c0-2.3-1.9-4.2-4.2-4.2H16.2z"/>
<g>
	<path d="M31.2,22.3H18.8c-1.7,0-3-1.3-3-3v0c0-1.7,1.3-3,3-3h12.4c1.7,0,3,1.3,3,3v0C34.2,21,32.9,22.3,31.2,22.3z"/>
	<path d="M22.4,33.7h-3.6c-1.7,0-3-1.3-3-3v0c0-1.7,1.3-3,3-3h3.6c1.7,0,3,1.3,3,3v0C25.4,32.3,24.1,33.7,22.4,33.7z"/>
</g>
</svg>
