<?xml version="1.0" encoding="utf-8"?>
<!-- Generator: Adobe Illustrator 23.0.2, SVG Export Plug-In . SVG Version: 6.00 Build 0)  -->
<svg version="1.1" id="图层_1" xmlns="http://www.w3.org/2000/svg" xmlns:xlink="http://www.w3.org/1999/xlink" x="0px" y="0px"
	 viewBox="0 0 50 50" style="enable-background:new 0 0 50 50;" xml:space="preserve">
<style type="text/css">
	.st0{fill:#C9C9C9;}
	.st1{fill:none;stroke:#969696;stroke-linecap:round;stroke-linejoin:round;stroke-miterlimit:10;}
	.st2{fill:#DCDCDC;}
	.st3{fill:none;stroke:#DCDCDC;stroke-miterlimit:10;}
	.st4{fill:none;stroke:#FFFFFF;stroke-linecap:round;stroke-linejoin:round;stroke-miterlimit:10;}
</style>
<g>
	<g>
		<path class="st0" d="M42,23c-0.5-5.5-4.4-9.5-9.2-9.5c-3.2,0-6.2,1.7-7.9,4.5c-1.7-2.8-4.5-4.5-7.7-4.5c-4.9,0-8.7,4-9.2,9.5
			c0,0.2-0.2,1.5,0.3,3.6c0.7,3,2.3,5.7,4.7,7.9l11.9,10.8L37,34.4c2.4-2.2,4-4.9,4.7-7.9C42.2,24.5,42,23.2,42,23L42,23z M42,23"/>
	</g>
</g>
<g>
	<g>
		<path class="st1" d="M42,23c-0.5-5.5-4.4-9.5-9.2-9.5c-3.2,0-6.2,1.7-7.9,4.5c-1.7-2.8-4.5-4.5-7.7-4.5c-4.9,0-8.7,4-9.2,9.5
			c0,0.2-0.2,1.5,0.3,3.6c0.7,3,2.3,5.7,4.7,7.9l11.9,10.8L37,34.4c2.4-2.2,4-4.9,4.7-7.9C42.2,24.5,42,23.2,42,23L42,23z M42,23"/>
	</g>
</g>
<path class="st2" d="M43.9,13.8h-0.3c-0.1,0-0.2-0.1-0.2-0.2c0-0.1,0.1-0.2,0.2-0.2h0.3c0.1,0,0.2,0.1,0.2,0.2
	C44.1,13.7,44,13.8,43.9,13.8L43.9,13.8z M43.5,13.1c-0.1,0.1-0.2,0.1-0.2,0c-0.1-0.1-0.1-0.2,0-0.2l0.2-0.2c0.1-0.1,0.2-0.1,0.2,0
	c0.1,0.1,0.1,0.2,0,0.2L43.5,13.1z M42.7,15c-0.1,0-0.2-0.1-0.2-0.2v-0.4c0-0.1,0.1-0.2,0.2-0.2c0.1,0,0.2,0.1,0.2,0.2v0.3
	C42.8,14.9,42.8,15,42.7,15L42.7,15z M42.7,12.9c-0.1,0-0.2-0.1-0.2-0.2v-0.3c0-0.1,0.1-0.2,0.2-0.2c0.1,0,0.2,0.1,0.2,0.2v0.3
	C42.8,12.8,42.8,12.9,42.7,12.9L42.7,12.9z M42,14.6c-0.1,0.1-0.2,0.1-0.2,0c-0.1-0.1-0.1-0.2,0-0.2l0.2-0.2c0.1-0.1,0.2-0.1,0.2,0
	c0.1,0.1,0.1,0.2,0,0.2L42,14.6z M42,13.1l-0.2-0.2c-0.1-0.1-0.1-0.2,0-0.2c0.1-0.1,0.2-0.1,0.2,0l0.2,0.2c0.1,0.1,0.1,0.2,0,0.2
	C42.2,13.2,42,13.2,42,13.1L42,13.1z M42,13.6c0,0.1-0.1,0.2-0.2,0.2h-0.3c-0.1,0-0.2-0.1-0.2-0.2c0-0.1,0.1-0.2,0.2-0.2h0.3
	C41.9,13.5,42,13.5,42,13.6L42,13.6z M43.5,14.1l0.2,0.2c0.1,0.1,0.1,0.2,0,0.2c-0.1,0.1-0.2,0.1-0.2,0l-0.2-0.2
	c-0.1-0.1-0.1-0.2,0-0.2C43.3,14,43.3,14,43.5,14.1L43.5,14.1z M43.5,14.1"/>
<path class="st2" d="M7.7,14.5H7.4c-0.1,0-0.2-0.1-0.2-0.2c0-0.1,0.1-0.2,0.2-0.2h0.3c0.1,0,0.2,0.1,0.2,0.2
	C7.9,14.4,7.8,14.5,7.7,14.5L7.7,14.5z M7.3,13.9c-0.1,0.1-0.2,0.1-0.2,0C7,13.8,7,13.7,7,13.6l0.2-0.2c0.1-0.1,0.2-0.1,0.2,0
	c0.1,0.1,0.1,0.2,0,0.2L7.3,13.9z M6.5,15.7c-0.1,0-0.2-0.1-0.2-0.2v-0.4c0-0.1,0.1-0.2,0.2-0.2c0.1,0,0.2,0.1,0.2,0.2v0.3
	C6.7,15.6,6.6,15.7,6.5,15.7L6.5,15.7z M6.5,13.6c-0.1,0-0.2-0.1-0.2-0.2v-0.3c0-0.1,0.1-0.2,0.2-0.2c0.1,0,0.2,0.1,0.2,0.2v0.3
	C6.7,13.6,6.6,13.6,6.5,13.6L6.5,13.6z M5.8,15.3c-0.1,0.1-0.2,0.1-0.2,0c-0.1-0.1-0.1-0.2,0-0.2l0.2-0.2c0.1-0.1,0.2-0.1,0.2,0
	C6.1,14.8,6.1,15,6,15L5.8,15.3z M5.8,13.9l-0.2-0.2c-0.1-0.1-0.1-0.2,0-0.2c0.1-0.1,0.2-0.1,0.2,0L6,13.6c0.1,0.1,0.1,0.2,0,0.2
	C6,13.9,5.9,13.9,5.8,13.9L5.8,13.9z M5.9,14.3c0,0.1-0.1,0.2-0.2,0.2H5.4c-0.1,0-0.2-0.1-0.2-0.2c0-0.1,0.1-0.2,0.2-0.2h0.3
	C5.7,14.2,5.9,14.2,5.9,14.3L5.9,14.3z M7.3,14.8l0.2,0.2c0.1,0.1,0.1,0.2,0,0.2c-0.1,0.1-0.2,0.1-0.2,0L7,15.1C7,15,7,14.9,7,14.8
	C7.1,14.7,7.2,14.7,7.3,14.8L7.3,14.8z M7.3,14.8"/>
<circle class="st3" cx="36.7" cy="10" r="1.8"/>
<circle class="st3" cx="6.1" cy="39.5" r="1.8"/>
<path class="st4" d="M13.7,32.1c0.4,0.5,0.9,1,1.4,1.5 M11.2,27.1c0.2,0.7,0.4,1.5,0.7,2.2 M18.6,16.3c-4,0-7.2,3.3-7.6,7.8
	 M39,24.1"/>
</svg>
