<svg 
 xmlns="http://www.w3.org/2000/svg"
 xmlns:xlink="http://www.w3.org/1999/xlink"
 width="54px" height="58px">
<path fill-rule="evenodd"  fill="rgb(232, 71, 74)"
 d="M26.357,-0.002 C34.851,-0.002 41.737,6.469 41.737,14.450 C41.737,22.433 34.851,28.904 26.357,28.904 C17.861,28.904 10.975,22.433 10.975,14.450 C10.975,6.467 17.863,-0.002 26.357,-0.002 L26.357,-0.002 ZM26.357,-0.002 C34.851,-0.002 41.737,6.469 41.737,14.450 C41.737,22.433 34.851,28.904 26.357,28.904 C17.861,28.904 10.975,22.433 10.975,14.450 C10.975,6.467 17.863,-0.002 26.357,-0.002 L26.357,-0.002 ZM20.588,33.722 L33.408,33.722 C44.382,33.722 53.276,42.078 53.276,52.389 L53.276,53.592 C53.276,57.656 44.380,57.810 33.408,57.810 L20.588,57.810 C9.614,57.810 0.720,57.804 0.720,53.592 L0.720,52.389 C0.720,42.078 9.614,33.722 20.588,33.722 L20.588,33.722 Z"/>
</svg>