<?xml version="1.0" encoding="utf-8"?>
<!-- Generator: Adobe Illustrator 23.0.3, SVG Export Plug-In . SVG Version: 6.00 Build 0)  -->
<svg version="1.1" id="图层_1" xmlns="http://www.w3.org/2000/svg" xmlns:xlink="http://www.w3.org/1999/xlink" x="0px" y="0px"
	 viewBox="0 0 50 50" style="enable-background:new 0 0 50 50;" xml:space="preserve">
<style type="text/css">
	.st0{fill:#E8474A;}
</style>
<g>
	<path class="st0" d="M24.6,6.9c5.3,0,9.6,4.1,9.6,9.1c0,5-4.3,9.1-9.6,9.1c-5.3,0-9.6-4.1-9.6-9.1C15,10.9,19.3,6.9,24.6,6.9
		L24.6,6.9z M24.6,6.9c5.3,0,9.6,4.1,9.6,9.1c0,5-4.3,9.1-9.6,9.1c-5.3,0-9.6-4.1-9.6-9.1C15,10.9,19.3,6.9,24.6,6.9L24.6,6.9z
		 M21,28h8c6.9,0,12.5,5.2,12.5,11.7v0.8c0,2.5-5.6,2.6-12.5,2.6h-8c-6.9,0-12.5,0-12.5-2.6v-0.8C8.5,33.3,14.1,28,21,28L21,28z
		 M21,28"/>
</g>
</svg>
