<svg 
 xmlns="http://www.w3.org/2000/svg"
 xmlns:xlink="http://www.w3.org/1999/xlink"
 width="121px" height="121px">
<path fill-rule="evenodd"  fill="rgb(67, 176, 52)"
 d="M60.467,-0.001 C93.862,-0.001 120.934,27.086 120.934,60.499 C120.934,93.912 93.862,120.999 60.467,120.999 C27.072,120.999 -0.002,93.912 -0.002,60.499 C-0.002,27.086 27.072,-0.001 60.467,-0.001 Z"/>
<path fill-rule="evenodd"  fill="rgb(255, 255, 255)"
 d="M96.444,70.575 C95.679,74.208 93.699,77.067 90.911,79.257 C89.978,79.989 88.973,80.617 87.978,81.255 C87.184,81.767 86.990,82.179 87.294,83.133 C87.923,85.110 88.573,87.079 89.214,89.052 C89.159,89.118 89.106,89.182 89.052,89.247 C88.468,88.965 87.881,88.694 87.303,88.398 C84.878,87.159 82.465,85.889 80.023,84.686 C79.508,84.431 78.886,84.304 78.316,84.312 C74.790,84.353 71.310,84.037 67.947,82.838 C63.795,81.357 60.166,79.030 57.696,75.018 C54.507,69.836 55.098,63.423 59.180,58.762 C62.268,55.234 66.137,53.228 70.502,52.224 C74.928,51.207 79.326,51.347 83.666,52.692 C87.753,53.958 91.323,56.165 93.995,59.805 C96.327,62.980 97.280,66.603 96.444,70.575 ZM68.704,60.568 C67.320,60.565 66.226,61.763 66.213,63.299 C66.201,64.879 67.227,65.996 68.692,65.996 C70.096,65.995 71.247,64.789 71.246,63.315 C71.244,61.868 70.045,60.572 68.704,60.568 ZM85.442,60.571 C84.096,60.567 82.905,61.861 82.916,63.318 C82.928,64.831 84.039,65.999 85.466,65.995 C86.931,65.992 87.951,64.883 87.949,63.292 C87.946,61.772 86.845,60.575 85.442,60.571 ZM62.585,52.950 C58.624,55.410 55.536,58.742 54.100,63.541 C53.055,67.036 53.288,70.488 54.638,73.856 C54.746,74.130 54.850,74.405 54.995,74.780 C54.635,74.863 54.344,74.980 54.050,74.991 C51.762,75.072 49.466,75.058 47.184,75.240 C46.320,75.310 45.465,75.766 44.643,76.139 C40.968,77.799 37.307,79.493 33.639,81.173 C33.518,81.228 33.388,81.265 33.155,81.351 C34.143,78.922 35.090,76.593 36.040,74.266 C36.753,72.519 36.618,72.071 35.039,71.153 C31.622,69.165 28.692,66.571 26.635,62.992 C22.953,56.585 23.466,49.335 27.969,43.435 C31.079,39.362 35.137,36.808 39.717,35.134 C44.395,33.425 49.217,32.919 54.108,33.485 C60.772,34.256 66.787,36.707 71.696,41.804 C73.608,43.790 74.869,45.935 76.025,49.164 C75.734,49.195 75.476,49.240 75.214,49.247 C70.716,49.346 66.481,50.532 62.585,52.950 ZM41.252,42.224 C39.182,42.244 37.503,44.128 37.489,46.444 C37.477,48.727 39.170,50.578 41.280,50.589 C43.357,50.600 45.096,48.731 45.125,46.460 C45.152,44.214 43.315,42.205 41.252,42.224 ZM62.716,42.233 C60.700,42.195 58.788,44.261 58.811,46.454 C58.835,48.681 60.606,50.571 62.683,50.586 C64.769,50.599 66.513,48.716 66.511,46.452 C66.507,44.201 64.772,42.272 62.716,42.233 Z"/>
</svg>